#!OML:ASF E:/inclinewalkrobotboard/Project1/Captureday1/Session1/subject1.ASF
:FULLY-SPECIFIED
:DEGREES
126
root 0 0 0 1.5428951241633282 -3.8705743258201086 1.8504421752006777
lowerback 12.237448071653478 0.9619842675895456 0.02573532176660126
upperback -4.446117029690653 1.2179958314427168 -0.6307874793148588
thorax -11.733537098142818 0.5634066263978041 -0.9374635771282884
lowerneck -6.07005780639468 1.8655904306993125 4.772783652331836
upperneck 18.109878313167805 3.498128863679013 -8.58363155327516
head 6.648593527039033 1.307379500194081 -3.2792555675817336
rclavicle 2.173764766329006E-15 -6.936511092775038E-16
rhumerus 21.098271677350795 15.64161914071824 -47.8180622238515
rradius 73.28477729728156
rwrist 26.68297543785042
rhand -34.615257959229254 -57.177627784753405
rfingers 7.1250200000000286
rthumb -7.7176194843870665 -87.13940723542977
lclavicle -7.322454334242393E-16 -7.3911213936686665E-16
lhumerus 23.17190004194726 -14.458905675556453 44.74733205694862
lradius 71.8306846114321
lwrist -22.249849650505524
lhand -45.75312201650256 -71.94809483499705
lfingers 7.1250200000000286
lthumb -18.507262340323873 -42.73140073911911
rfemur -24.92938057476556 -1.9119515846137132 17.833573110506727
rtibia 50.41685884027005
rfoot -34.420832996261815 -18.29849012884597
rtoes -21.9577821779878
lfemur -28.08195260259091 2.1023769894038047 -17.120059727261946
ltibia 50.66441060799736
lfoot -35.62030033389907 -0.21251432004645476
ltoes -22.18926348489702
127
root 0 0 0 1.5420421161326239 -3.8703511929335344 1.850064885674004
lowerback 12.237741413554806 0.9620415167767145 0.0263921508378282
upperback -4.446257083582999 1.218128678396572 -0.6307656208307476
thorax -11.733882942783207 0.5634623031352868 -0.9378030442669909
lowerneck -6.069688253241062 1.8657821632006624 4.773259236953117
upperneck 18.111019857599754 3.498428563565265 -8.584458279471475
head 6.648882350148945 1.3074756392027287 -3.2795786181135993
rclavicle 2.1620718699302336E-15 -7.037147387230465E-16
rhumerus 21.090802530218276 15.630702738456696 -47.80992856413188
rradius 73.27872781622382
rwrist 26.691514844258997
rhand -34.61544857871276 -57.1801136057691
rfingers 7.1250200000000286
rthumb -7.717781205455315 -87.141773009786
lclavicle -7.400676162389115E-16 -7.448025380897213E-16
lhumerus 23.16735225723035 -14.451119461071594 44.745284778857496
lradius 71.82554128908828
lwrist -22.25420596935753
lhand -45.752649931142315 -71.95299345758818
lfingers 7.1250200000000286
lthumb -18.506734159162427 -42.736447484072116
rfemur -24.916362032141006 -1.9263746729114501 17.81727493279633
rtibia 50.50665460917081
rfoot -34.35950399769837 -18.280360066957897
rtoes -21.953804513128976
lfemur -28.07521633673251 2.1123374611082784 -17.113979271638108
ltibia 50.75407109352959
lfoot -35.528638345986906 -0.27086015198160984
ltoes -22.178280800478603
128
root 0 0 0 1.5408996377891273 -3.869716506108807 1.8501514665447
lowerback 12.23835834294199 0.9617993662582247 0.026640032468543073
upperback -4.446488162359695 1.217837808858614 -0.6307709378841199
thorax -11.73455727989281 0.5633182725361596 -0.9378960140326045
lowerneck -6.068891484109921 1.8660166645310128 4.773778729916243
upperneck 18.111725023405505 3.4988033439464905 -8.58532141472401
head 6.648968965070599 1.3076161465962746 -3.2799132378884304
rclavicle 2.153430958834593E-15 -7.129453872968702E-16
rhumerus 21.084267728728456 15.621265984786154 -47.80295196669321
rradius 73.27336988205418
rwrist 26.698943848393927
rhand -34.61548498123046 -57.18243997046382
rfingers 7.1250200000000286
rthumb -7.717782633576357 -87.14375477076227
lclavicle -7.45261156193227E-16 -7.505583383940788E-16
lhumerus 23.164622106616598 -14.445888743591432 44.74373129390708
lradius 71.82216822931602
lwrist -22.257381223393672
lhand -45.752480782472276 -71.95712847863123
lfingers 7.1250200000000286
lthumb -18.506518494927857 -42.74064116604677
rfemur -24.921653919326307 -1.9428494193898818 17.795780351736965
rtibia 50.60846958807267
rfoot -34.29146050463655 -18.269762507992162
rtoes -21.929840413483323
lfemur -28.072526946714028 2.127321230054139 -17.119134791831925
ltibia 50.848183084702896
lfoot -35.46565528692509 -0.315559237283634
ltoes -22.149851946992214
129
root 0 0 0 1.5406207259892661 -3.8711881945270026 1.8509334303353877
lowerback 12.23800948804712 0.962566040921692 0.026249865459308575
upperback -4.44660928626227 1.2186956915368623 -0.6313236081468471
thorax -11.73452146032233 0.5637748055432459 -0.938285884293951
lowerneck -6.0691027633239365 1.8661183029317827 4.7740633697276404
upperneck 18.113561788450617 3.4989084088208884 -8.585804076031582
head 6.6495858651039255 1.3076442215679593 -3.2801195200675384
rclavicle 2.1689022869264904E-15 -7.076224251556233E-16
rhumerus 21.08122481800895 15.616662035936473 -47.799676849708604
rradius 73.27019639056046
rwrist 26.70232095977914
rhand -34.61625674742771 -57.18341278504608
rfingers 7.1250200000000286
rthumb -7.717915576664597 -87.14348878306762
lclavicle -7.277473465747142E-16 -7.543658237314064E-16
lhumerus 23.163319914910964 -14.442433345202211 44.74245190002761
lradius 71.82014236970639
lwrist -22.25939922337303
lhand -45.751867863827414 -71.96072468743726
lfingers 7.1250200000000286
lthumb -18.50599404344669 -42.74334334729251
rfemur -24.952236715782927 -1.963977462682334 17.762285094584776
rtibia 50.7426617946085
rfoot -34.20021783964722 -18.271087973756778
rtoes -21.863583126001103
lfemur -28.07947083913615 2.1486416990208355 -17.134016673740597
ltibia 50.94679432412981
lfoot -35.42535529673902 -0.34475421176663357
ltoes -22.09697481436815
130
root 0 0 0 1.5390636364244918 -3.869451145582756 1.8517844845831775
lowerback 12.238813394727634 0.9618066852241349 0.025736719504723837
upperback -4.446766398600513 1.2177068146407 -0.6314102755323857
thorax -11.73523558813866 0.5632871688995333 -0.9379852136897251
lowerneck -6.068106425538149 1.8659418484546013 4.774059095385429
upperneck 18.11276634968484 3.498682075812977 -8.585601546052622
head 6.6491785725098 1.3075616394250247 -3.280083378796543
rclavicle 2.156414044997865E-15 -7.0734000581401E-16
rhumerus 21.085379842652763 15.62380679730253 -47.8059790485502
rradius 73.27340803466635
rwrist 26.695623621350123
rhand -34.61530538023365 -57.178290486077344
rfingers 7.1250200000000286
rthumb -7.717406097615809 -87.13950833027684
lclavicle -7.478885327916232E-16 -7.415658392765638E-16
lhumerus 23.159864852173463 -14.43995605264354 44.74263862078617
lradius 71.81817645639124
lwrist -22.25973491676431
lhand -45.751763224298216 -71.96016991156897
lfingers 7.1250200000000286
lthumb -18.506259178366236 -42.743483119360036
rfemur -24.971894181848498 -1.9705939891092115 17.755167784776923
rtibia 50.78072922447636
rfoot -34.190855118943134 -18.27119932257908
rtoes -21.853671375853594
lfemur -28.083614458780026 2.153873244099628 -17.147450239676026
ltibia 50.955968553790704
lfoot -35.462907696761015 -0.32988048012021576
ltoes -22.08038482845379
131
root 0 0 0 1.53886206250229 -3.8678509093693063 1.852163900728772
lowerback 12.239884787744504 0.9606774381030118 0.025264673235529833
upperback -4.447021662972528 1.2162392068153376 -0.631055861074861
thorax -11.736238299861155 0.5625693682963928 -0.9372248235415908
lowerneck -6.066832360601936 1.8663144390693895 4.774402227907357
upperneck 18.111116038222093 3.499307985592898 -8.586184314821319
head 6.6484554460828456 1.307860868165493 -3.28025172372742
rclavicle 2.1551492645749322E-15 -7.153803197022762E-16
rhumerus 21.082379366994928 15.619128664888054 -47.80179711894514
rradius 73.27157890353058
rwrist 26.700258634262966
rhand -34.61502000569009 -57.182526414983016
rfingers 7.1250200000000286
rthumb -7.717334218810231 -87.14324652435808
lclavicle -7.434619245344931E-16 -7.534660052303682E-16
lhumerus 23.1663378666157 -14.447655833170394 44.743699987125495
lradius 71.82373297161888
lwrist -22.257072606495896
lhand -45.753231109954704 -71.9587126812439
lfingers 7.1250200000000286
lthumb -18.507264056315698 -42.74221497220981
rfemur -24.98154343630556 -1.969313717870798 17.753887594412106
rtibia 50.768298035779026
rfoot -34.190526804271116 -18.278596384060684
rtoes -21.84498274665409
lfemur -28.081752778859105 2.158021495868186 -17.161213734495355
ltibia 50.950375056401924
lfoot -35.49613375161919 -0.3144294175169242
ltoes -22.06327383502957
